<svg version="1.1" xmlns="http://www.w3.org/2000/svg" xmlns:xlink="http://www.w3.org/1999/xlink" width="49.8601" height="49.8601" viewBox="0,0,49.8601,49.8601"><g transform="translate(-215.06993,-155.06997)"><g data-paper-data="{&quot;isPaintingLayer&quot;:true}" fill-rule="nonzero" stroke-linejoin="miter" stroke-miterlimit="10" stroke-dasharray="" stroke-dashoffset="0" style="mix-blend-mode: normal"><g><g stroke="#614b26" stroke-width="5.5"><path d="M229.47761,190.9419v-21.88382h21.04474v21.88382z" fill="#b78e47" stroke-linecap="butt"/><path d="M229.598,190.86291l20.63822,-21.57632" fill="none" stroke-linecap="round"/></g><g fill="none" stroke="#ffea00"><g stroke-width="3" stroke-linecap="round"><path d="M230.66784,178.03685l3.81726,2.03945l-3.7872,1.85816" data-paper-data="{&quot;index&quot;:null}"/><path d="M249.30208,181.96315l-3.7872,-1.85816l3.81726,-2.03945" data-paper-data="{&quot;index&quot;:null}"/></g><g stroke-width="3" stroke-linecap="round"><path d="M238.03684,189.33215l2.03945,-3.81726l1.85816,3.7872" data-paper-data="{&quot;index&quot;:null}"/><path d="M241.96314,170.69791l-1.85816,3.7872l-2.03945,-3.81725" data-paper-data="{&quot;index&quot;:null}"/></g><g><path d="M230.50537,180.00001c0,-5.24375 4.25089,-9.49464 9.49464,-9.49464c5.24375,0 9.49464,4.25089 9.49464,9.49464c0,5.24375 -4.25089,9.49464 -9.49464,9.49464c-5.24375,0 -9.49464,-4.25089 -9.49464,-9.49464z" stroke-width="4.5" stroke-linecap="butt"/><g stroke-width="3.5" stroke-linecap="round"><path d="M230.86654,181.476l-7.29663,-1.46985l7.35454,-1.61325"/><path d="M249.07553,178.52399l7.35455,1.61326l-7.29664,1.46985" data-paper-data="{&quot;index&quot;:null}"/></g><g stroke-width="3.5" stroke-linecap="round"><path d="M241.47599,189.13346l-1.46985,7.29663l-1.61325,-7.35455"/><path d="M238.52398,170.92446l1.61326,-7.35454l1.46985,7.29663" data-paper-data="{&quot;index&quot;:null}"/></g></g></g></g></g></g></svg>