<svg version="1.1" xmlns="http://www.w3.org/2000/svg" xmlns:xlink="http://www.w3.org/1999/xlink" width="72.00654" height="34.65145" viewBox="0,0,72.00654,34.65145"><g transform="translate(-201.66499,-163.01922)"><g data-paper-data="{&quot;isPaintingLayer&quot;:true}" fill="#ff0000" fill-rule="nonzero" stroke="#000000" stroke-width="2" stroke-linecap="butt" stroke-linejoin="miter" stroke-miterlimit="10" stroke-dasharray="" stroke-dashoffset="0" style="mix-blend-mode: normal"><path d="M216.50738,187.25569l2.96961,-3.156l9.13595,9.18037l0.13299,3.3304l-3.10261,-0.17439z"/><path d="M219.9263,176.01448l-3.07457,-3.05385l9.424,-8.88441l3.33278,-0.04291l-0.25821,3.09676z"/><path d="M217.40409,190.345v-20.57266h46.43378l8.53404,10.71092l-8.53405,9.86171z"/><path d="M216.11051,190.28633v-20.57266h38.70846l8.53404,10.71092l-8.53405,9.86171z"/><path d="M216.86158,190.28633v-20.57266h27.65696l8.53404,10.71092l-8.53405,9.86171z"/><path d="M206.39632,192.4232l-3.10261,0.17439l0.13299,-3.3304l9.13595,-9.18037l2.96961,3.156z" data-paper-data="{&quot;index&quot;:null}"/><path d="M217.23712,190.28633v-20.57266h17.57112l8.53404,10.71092l-8.53405,9.86171z"/><path d="M203.01123,171.80819l-0.25821,-3.09676l3.33278,0.04291l9.424,8.88441l-3.07457,3.05385z" data-paper-data="{&quot;index&quot;:null}"/><path d="M220.36546,190.40937v-20.57266h3.94451l8.53404,10.71092l-8.53405,9.86171z"/><path d="M210.0252,171.99966c4.48371,-4.48371 11.75323,-4.48371 16.23693,0c4.48371,4.48371 4.48371,11.75323 0,16.23693c-4.48371,4.48371 -11.75323,4.48371 -16.23693,0c-4.48371,-4.48371 -4.48371,-11.75323 0,-16.23693z"/></g></g></svg>