<svg version="1.1" xmlns="http://www.w3.org/2000/svg" xmlns:xlink="http://www.w3.org/1999/xlink" width="30.0844" height="51.25963" viewBox="0,0,30.0844,51.25963"><g transform="translate(-225.60312,-151.14838)"><g data-paper-data="{&quot;isPaintingLayer&quot;:true}" fill-rule="nonzero" stroke="#000000" stroke-width="2" stroke-linecap="butt" stroke-linejoin="miter" stroke-miterlimit="10" stroke-dasharray="" stroke-dashoffset="0" style="mix-blend-mode: normal"><path d="M226.97996,188.79333c0,-1.50491 -0.98652,-7.44617 -0.37685,-12.00232c0.58473,-4.36974 2.30691,-10.83997 2.30691,-10.83997c0,0 2.58946,10.23589 4.17945,8.83379c1.42041,-1.25255 3.30006,-11.9059 3.30006,-11.9059c0,0 1.91671,13.29972 3.2051,13.29972c1.61224,0 5.02985,-17.58666 5.02985,-17.58666c0,0 0.62997,8.15281 1.39315,8.91594c0.81342,0.81337 3.34628,-4.17682 3.34628,-4.17682c0,0 -1.14503,17.0447 -0.77055,17.3297c2.58685,1.9688 5.0024,-5.25843 5.0024,-5.25843c0,0 -1.38645,12.02704 -1.38645,13.39094c0,6.96689 -5.64778,12.61468 -12.61468,12.61468c-6.96689,0 -12.61468,-5.64778 -12.61468,-12.61468z" fill="#ff9400"/><path d="M231.03814,194.32659c0,-0.78995 -0.65291,-3.90861 -0.24941,-6.30021c0.38699,-2.29374 1.52678,-5.69007 1.52678,-5.69007c0,0 1.71378,5.37298 2.76608,4.637c0.94007,-0.65749 2.18407,-6.2496 2.18407,-6.2496c0,0 1.26853,6.98123 2.12123,6.98123c1.06702,0 3.3289,-9.23151 3.3289,-9.23151c0,0 0.41693,4.27954 0.92203,4.68012c0.53835,0.42695 2.21466,-2.19248 2.21466,-2.19248c0,0 -0.75781,8.94703 -0.50997,9.09663c1.71205,1.03345 3.31073,-2.76023 3.31073,-2.76023c0,0 -0.9176,6.31318 -0.9176,7.02912c0,3.65703 -3.73787,6.62164 -8.34876,6.62164c-4.61089,0 -8.34875,-2.96461 -8.34875,-6.62164z" fill="#ff9400"/></g></g></svg>