<svg version="1.1" xmlns="http://www.w3.org/2000/svg" xmlns:xlink="http://www.w3.org/1999/xlink" width="91.48194" height="78.27702" viewBox="0,0,91.48194,78.27702"><g transform="translate(-193.17371,-140.5573)"><g data-paper-data="{&quot;isPaintingLayer&quot;:true}" fill-rule="nonzero" stroke="#000000" stroke-width="2" stroke-linecap="butt" stroke-linejoin="miter" stroke-miterlimit="10" stroke-dasharray="" stroke-dashoffset="0" style="mix-blend-mode: normal"><path d="M220.34455,180c0,-10.85541 8.80004,-19.65545 19.65545,-19.65545c10.85541,0 19.65545,8.80004 19.65545,19.65545c0,10.85541 -8.80004,19.65545 -19.65545,19.65545c-10.85541,0 -19.65545,-8.80004 -19.65545,-19.65545z" fill="#defeff"/><path d="M230.70678,175.35686c1.01264,-2.10654 -13.08807,-32.72331 -13.08807,-32.72331c0,0 18.07776,26.99634 21.72283,26.99634c2.66429,0 24.5785,-28.46253 24.5785,-28.46253c0,0 -16.77945,30.97765 -15.4076,33.72503c1.13396,2.27096 36.02516,5.06838 36.02516,5.06838c0,0 -33.97971,4.03908 -35.36674,5.69984c-1.9507,2.33568 14.25165,32.57306 14.25165,32.57306c0,0 -20.69087,-27.54173 -23.28618,-27.54173c-2.61196,0 -25.34568,26.86119 -25.34568,26.86119c0,0 17.68041,-29.18066 16.04101,-31.92846c-1.60904,-2.69691 -36.65797,-4.87542 -36.65797,-4.87542c0,0 35.18147,-2.5807 36.53308,-5.3924z" fill="#defeff"/><path d="M229.59417,180c0,-5.74698 4.65885,-10.40583 10.40583,-10.40583c5.74698,0 10.40583,4.65885 10.40583,10.40583c0,5.74698 -4.65885,10.40583 -10.40583,10.40583c-5.74698,0 -10.40583,-4.65885 -10.40583,-10.40583z" fill="#defeff"/></g></g></svg>