<svg version="1.1" xmlns="http://www.w3.org/2000/svg" xmlns:xlink="http://www.w3.org/1999/xlink" width="46.77528" height="46.63576" viewBox="0,0,46.77528,46.63576"><g transform="translate(-219.27103,-154.07777)"><g data-paper-data="{&quot;isPaintingLayer&quot;:true}" fill="#ff0000" fill-rule="nonzero" stroke="#000000" stroke-width="2" stroke-linecap="butt" stroke-linejoin="miter" stroke-miterlimit="10" stroke-dasharray="" stroke-dashoffset="0" style="mix-blend-mode: normal"><path d="M225.36657,196.82158l-0.1318,-4.33146l12.95159,0.03141l2.44898,2.26091l-2.31719,2.07056z"/><path d="M227.42236,193.58707l-4.33345,0.01465l0.38155,-12.946l2.32629,-2.38697l2.00716,2.37232z"/><path d="M226.89532,197.08219l-4.07703,-4.07703l32.83364,-32.83364l8.15714,-3.91182l-4.08012,7.98885z"/><path d="M220.27103,194.56276c0,-2.84469 2.30608,-5.15077 5.15077,-5.15077c2.84469,0 5.15077,2.30608 5.15077,5.15077c0,2.84469 -2.30608,5.15077 -5.15077,5.15077c-2.84469,0 -5.15077,-2.30608 -5.15077,-5.15077z"/></g></g></svg>