<svg version="1.1" xmlns="http://www.w3.org/2000/svg" xmlns:xlink="http://www.w3.org/1999/xlink" width="36.4234" height="35.41789" viewBox="0,0,36.4234,35.41789"><defs><radialGradient cx="252.49157" cy="159.42885" r="28.46626" gradientUnits="userSpaceOnUse" id="color-1"><stop offset="0" stop-color="#26c5f7"/><stop offset="1" stop-color="#1997fc"/></radialGradient></defs><g transform="translate(-211.69126,-163.12556)"><g data-paper-data="{&quot;isPaintingLayer&quot;:true}" fill-rule="nonzero" stroke-width="0.5" stroke-linecap="butt" stroke-linejoin="miter" stroke-miterlimit="10" stroke-dasharray="" stroke-dashoffset="0" style="mix-blend-mode: normal"><g><path d="M239.26068,167.05499c0.99581,1.05028 1.48103,2.20702 1.08378,2.58367c-0.39725,0.37665 -1.52654,-0.16943 -2.52235,-1.2197c-0.99581,-1.05028 -1.48103,-2.20703 -1.08378,-2.58367c0.39725,-0.37665 1.52655,0.16943 2.52235,1.21971z" fill="#a7a7a7" stroke="#808080"/><path d="M243.72247,171.76082c0.99581,1.05028 1.48103,2.20702 1.08378,2.58367c-0.39725,0.37665 -1.52654,-0.16943 -2.52235,-1.2197c-0.99581,-1.05028 -1.48103,-2.20702 -1.08378,-2.58367c0.39725,-0.37665 1.52654,0.16943 2.52235,1.2197z" fill="#a7a7a7" stroke="#808080"/><path d="M241.71757,169.21137c0.64533,0.68062 0.27825,2.07643 -0.81989,3.11763c-1.09814,1.04119 -3.43893,2.10239 -4.08426,1.42177c-0.64533,-0.68062 0.64918,-2.84534 1.74732,-3.88653c1.09814,-1.04119 2.51151,-1.33349 3.15684,-0.65287z" fill="#a7a7a7" stroke="#808080"/><path d="M235.76453,163.53958c0.85177,0.89835 1.81215,4.92719 3.91365,8.1441c2.28796,3.50233 6.46735,1.32221 8.06758,3.00996c0.61985,0.65375 -1.3162,3.40842 -2.7488,4.95184c-3.75031,3.18216 -14.78784,5.60173 -16.94596,3.32557c-1.9927,-2.10169 -1.26253,-12.28356 4.01466,-16.84136c1.45225,-1.34248 3.21867,-3.24493 3.79429,-2.63784z" fill="#1997fc" stroke="#0056cf"/><path d="M234.05335,193.63232c-6.59598,6.25392 -14.14898,5.83355 -18.72846,1.00359c-4.57948,-4.82996 -4.52236,-12.39262 2.07363,-18.64654c6.59599,-6.25392 18.82884,-7.72839 21.67051,-4.61665c3.02062,3.30771 1.58031,16.00568 -5.01568,22.2596z" fill="#1997fc" stroke="#0056cf"/><path d="M224.58968,198.2344c-3.60904,0.33864 -6.97057,-0.98385 -9.45614,-3.60537c-2.25315,-2.37639 -3.3839,-5.41429 -3.16569,-8.63236c0.11042,-1.62848 5.19999,-2.75722 9.76293,1.51239c5.50026,5.1026 4.40911,10.57988 2.8589,10.72535z" fill="#e1e1e1" stroke="#cfcfcf"/><path d="M230.42949,169.90769c0,0 4.30239,1.60967 6.49691,3.89531c2.55737,2.66354 3.46304,6.2915 3.46304,6.2915l-0.683,2.77224c0,0 -0.54767,-4.15032 -4.14267,-7.94097c-3.73452,-3.93776 -7.98361,-4.36695 -7.98361,-4.36695z" fill="#e1e1e1" stroke="#cfcfcf"/><path d="M225.35366,171.30596c0,0 6.29313,1.84762 9.08093,4.75897c3.24873,3.39272 4.66445,9.41376 4.66445,9.41376l-1.23629,2.63882c0,0 -0.41749,-5.75842 -4.99066,-10.58075c-4.75066,-5.00948 -10.40163,-5.00585 -10.40163,-5.00585z" fill="#e1e1e1" stroke="#cfcfcf"/><path d="M242.60248,168.3461c0.58374,0.66009 -2.72503,5.2265 -3.74659,5.8662c-2.65387,1.66186 -4.57229,2.81103 -4.87709,2.48956c-0.27318,-0.28812 0.86279,-1.94722 2.48546,-4.26397c1.05637,-1.50824 5.54871,-4.7584 6.13822,-4.09179z" data-paper-data="{&quot;index&quot;:null}" fill="url(#color-1)" stroke="#0056cf"/></g></g></g></svg>