<svg version="1.1" xmlns="http://www.w3.org/2000/svg" xmlns:xlink="http://www.w3.org/1999/xlink" width="59.30133" height="49.8601" viewBox="0,0,59.30133,49.8601"><g transform="translate(-226.72761,-144.30074)"><g data-paper-data="{&quot;isPaintingLayer&quot;:true}" fill-rule="nonzero" stroke-linejoin="miter" stroke-miterlimit="10" stroke-dasharray="" stroke-dashoffset="0" style="mix-blend-mode: normal"><path d="M275.77826,176.01163l-3.62637,3.73626l3.62637,4.28571l-3.18681,3.07692l-3.40659,-5.05495l-3.62637,3.40659l-4.50549,-16.26374z" fill="#ffffff" stroke="#000000" stroke-width="1.5" stroke-linecap="round"/><g stroke="#614b26" stroke-width="5.5"><path d="M229.47761,190.9419v-21.88382h21.04474v21.88382z" fill="#b78e47" stroke-linecap="butt"/><path d="M229.598,190.86291l20.63822,-21.57632" fill="none" stroke-linecap="round"/></g><g fill="none" stroke="#ffea00"><g stroke-width="3" stroke-linecap="round"><path d="M251.76674,167.26762l3.81726,2.03945l-3.7872,1.85816" data-paper-data="{&quot;index&quot;:null}"/><path d="M270.40098,171.19392l-3.7872,-1.85816l3.81726,-2.03945" data-paper-data="{&quot;index&quot;:null}"/></g><g stroke-width="3" stroke-linecap="round"><path d="M259.13574,178.56292l2.03945,-3.81726l1.85816,3.7872" data-paper-data="{&quot;index&quot;:null}"/><path d="M263.06204,159.92868l-1.85816,3.7872l-2.03945,-3.81725" data-paper-data="{&quot;index&quot;:null}"/></g><g><path d="M251.60427,169.23078c0,-5.24375 4.25089,-9.49464 9.49464,-9.49464c5.24375,0 9.49464,4.25089 9.49464,9.49464c0,5.24375 -4.25089,9.49464 -9.49464,9.49464c-5.24375,0 -9.49464,-4.25089 -9.49464,-9.49464z" stroke-width="4.5" stroke-linecap="butt"/><g stroke-width="3.5" stroke-linecap="round"><path d="M251.96544,170.70677l-7.29663,-1.46985l7.35454,-1.61325"/><path d="M270.17443,167.75476l7.35455,1.61326l-7.29664,1.46985" data-paper-data="{&quot;index&quot;:null}"/></g><g stroke-width="3.5" stroke-linecap="round"><path d="M262.57489,178.36423l-1.46985,7.29663l-1.61325,-7.35455"/><path d="M259.62288,160.15523l1.61326,-7.35454l1.46985,7.29663" data-paper-data="{&quot;index&quot;:null}"/></g></g></g></g></g></svg>