<svg version="1.1" xmlns="http://www.w3.org/2000/svg" xmlns:xlink="http://www.w3.org/1999/xlink" width="46.60204" height="43.42574" viewBox="0,0,46.60204,43.42574"><g transform="translate(-216.85825,-163.06632)"><g data-paper-data="{&quot;isPaintingLayer&quot;:true}" fill-rule="nonzero" stroke-linejoin="miter" stroke-miterlimit="10" stroke-dasharray="" stroke-dashoffset="0" style="mix-blend-mode: normal"><path d="M246.27945,176.46607l-24.92119,13.53881" data-paper-data="{&quot;index&quot;:null}" fill="none" stroke="#777777" stroke-width="9" stroke-linecap="round"/><path d="M245.67305,173.32308l12.96871,-3.67193l-10.05206,9.06822z" data-paper-data="{&quot;index&quot;:null}" fill="#777777" stroke="#777777" stroke-width="2.5" stroke-linecap="round"/><path d="M246.773,176.21592c1.69082,3.11233 -1.83617,8.29613 -7.87777,11.57832c-6.0416,3.28219 -12.30996,3.41989 -14.00079,0.30754c-1.69082,-3.11233 1.83617,-8.29613 7.87777,-11.57832c6.0416,-3.28219 12.30996,-3.41989 14.00079,-0.30754z" fill="#777777" stroke="none" stroke-width="NaN" stroke-linecap="butt"/><path d="M251.45686,163.06632l-31.05871,2.55291l25.30189,0.19051l-23.69867,7.36275l27.14004,-4.32003l11.48426,-3.04073z" fill="#ffffff" stroke="none" stroke-width="0" stroke-linecap="round"/><path d="M260.2975,179.69564l-21.00892,26.79643l15.04395,-23.19505l-20.96982,17.18971l20.26403,-22.15897l9.68094,-8.64714z" data-paper-data="{&quot;index&quot;:null}" fill="#ffffff" stroke="none" stroke-width="0" stroke-linecap="round"/></g></g></svg>