<svg version="1.1" xmlns="http://www.w3.org/2000/svg" xmlns:xlink="http://www.w3.org/1999/xlink" width="40.96552" height="40.96552" viewBox="0,0,40.96552,40.96552"><g transform="translate(-219.51724,-159.51724)"><g data-paper-data="{&quot;isPaintingLayer&quot;:true}" fill-rule="nonzero" stroke="#000000" stroke-linejoin="miter" stroke-miterlimit="10" stroke-dasharray="" stroke-dashoffset="0" style="mix-blend-mode: normal"><path d="M220.51724,180c0,-10.76003 8.72273,-19.48276 19.48276,-19.48276c10.76003,0 19.48276,8.72273 19.48276,19.48276c0,10.76003 -8.72273,19.48276 -19.48276,19.48276c-10.76003,0 -19.48276,-8.72273 -19.48276,-19.48276z" fill="#11ff00" stroke-width="2" stroke-linecap="butt"/><path d="M236.66667,180c0,-1.84095 1.49238,-3.33333 3.33333,-3.33333c1.84095,0 3.33333,1.49238 3.33333,3.33333c0,1.84095 -1.49238,3.33333 -3.33333,3.33333c-1.84095,0 -3.33333,-1.49238 -3.33333,-3.33333z" fill="#000000" stroke-width="2" stroke-linecap="butt"/><path d="M234.42167,182.42208l-8.97737,6.16627c0,0 -3.15237,-4.4727 -2.92218,-9.63651c0.21189,-4.75328 3.40106,-8.63484 3.40106,-8.63484l8.7246,7.34117z" fill="#000000" stroke-width="0.5" stroke-linecap="round"/><path d="M241.15673,173.6497l0.64612,-10.87192c0,0 5.46585,0.25861 9.40001,3.61127c3.62138,3.08612 4.72647,7.98674 4.72647,7.98674l-11.15157,2.37778z" fill="#000000" stroke-width="0.5" stroke-linecap="round"/><path d="M245.07562,183.2617l9.92754,4.47885c0,0 -2.18985,5.01467 -6.7246,7.49542c-4.17422,2.28352 -9.14686,1.56925 -9.14686,1.56925l1.75324,-11.26665z" fill="#000000" stroke-width="0.5" stroke-linecap="round"/></g></g></svg>