<svg version="1.1" xmlns="http://www.w3.org/2000/svg" xmlns:xlink="http://www.w3.org/1999/xlink" width="22.531" height="22.08671" viewBox="0,0,22.531,22.08671"><g transform="translate(-228.7345,-168.95665)"><g data-paper-data="{&quot;isPaintingLayer&quot;:true}" fill-rule="nonzero" stroke-linejoin="miter" stroke-miterlimit="10" stroke-dasharray="" stroke-dashoffset="0" style="mix-blend-mode: normal"><path d="M240,171.70665c4.70298,0 8.5155,3.71306 8.5155,8.29335c0,4.58029 -3.81252,8.29335 -8.5155,8.29335c-4.70298,0 -8.5155,-3.71306 -8.5155,-8.29335c0,-4.58029 3.81252,-8.29335 8.5155,-8.29335z" data-paper-data="{&quot;index&quot;:null}" fill="#b8b8b8" stroke="#616161" stroke-width="5.5" stroke-linecap="butt"/><path d="M235.14067,184.76556l9.71867,-9.53112" data-paper-data="{&quot;index&quot;:null}" fill="none" stroke="#616161" stroke-width="5.5" stroke-linecap="round"/><path d="M232.37871,186.02804c0,-0.69036 0.55964,-1.25 1.25,-1.25c0.69036,0 1.25,0.55964 1.25,1.25c0,0.69036 -0.55964,1.25 -1.25,1.25c-0.69036,0 -1.25,-0.55964 -1.25,-1.25z" fill="#b8b8b8" stroke="none" stroke-width="0.5" stroke-linecap="butt"/><path d="M245.43409,173.60894c0,-0.69036 0.55964,-1.25 1.25,-1.25c0.69036,0 1.25,0.55964 1.25,1.25c0,0.69036 -0.55964,1.25 -1.25,1.25c-0.69036,0 -1.25,-0.55964 -1.25,-1.25z" fill="#b8b8b8" stroke="none" stroke-width="0.5" stroke-linecap="butt"/><path d="M242.99942,176.02602c0,-0.69036 0.55964,-1.25 1.25,-1.25c0.69036,0 1.25,0.55964 1.25,1.25c0,0.69036 -0.55964,1.25 -1.25,1.25c-0.69036,0 -1.25,-0.55964 -1.25,-1.25z" fill="#b8b8b8" stroke="none" stroke-width="0.5" stroke-linecap="butt"/><path d="M235.12871,183.90304c0,-0.69036 0.55964,-1.25 1.25,-1.25c0.69036,0 1.25,0.55964 1.25,1.25c0,0.69036 -0.55964,1.25 -1.25,1.25c-0.69036,0 -1.25,-0.55964 -1.25,-1.25z" fill="#b8b8b8" stroke="none" stroke-width="0.5" stroke-linecap="butt"/></g></g></svg>