<svg version="1.1" xmlns="http://www.w3.org/2000/svg" xmlns:xlink="http://www.w3.org/1999/xlink" width="67.36328" height="69.82985" viewBox="0,0,67.36328,69.82985"><g transform="translate(-206.4323,-144.62935)"><g data-paper-data="{&quot;isPaintingLayer&quot;:true}" fill-rule="nonzero" stroke-linejoin="miter" stroke-miterlimit="10" stroke-dasharray="" stroke-dashoffset="0" style="mix-blend-mode: normal"><path d="M209.1823,211.7092v-64.32985h61.86328v64.32985z" fill="#b8b8b8" stroke="#616161" stroke-width="5.5" stroke-linecap="butt"/><path d="M209.53619,211.477l60.66828,-63.42594" fill="none" stroke="#616161" stroke-width="5.5" stroke-linecap="round"/><path d="M211.59139,210.67932c-0.73626,0 -1.33311,-0.59685 -1.33311,-1.33311c0,-0.73626 0.59685,-1.33311 1.33311,-1.33311c0.73626,0 1.33311,0.59685 1.33311,1.33311c0,0.73626 -0.59685,1.33311 -1.33311,1.33311z" data-paper-data="{&quot;index&quot;:null}" fill="#b8b8b8" stroke="none" stroke-width="0.5" stroke-linecap="butt"/><path d="M209.19179,213.34554c-0.73626,0 -1.33311,-0.59685 -1.33311,-1.33311c0,-0.73626 0.59685,-1.33311 1.33311,-1.33311c0.73626,0 1.33311,0.59685 1.33311,1.33311c0,0.73626 -0.59685,1.33311 -1.33311,1.33311z" data-paper-data="{&quot;index&quot;:null}" fill="#b8b8b8" stroke="none" stroke-width="0.5" stroke-linecap="butt"/><path d="M271.18763,148.71154c-0.86473,0 -1.56573,-0.70099 -1.56573,-1.56573c0,-0.86473 0.701,-1.56573 1.56573,-1.56573c0.86473,0 1.56573,0.701 1.56573,1.56573c0,0.86473 -0.70099,1.56573 -1.56573,1.56573z" data-paper-data="{&quot;index&quot;:null}" fill="#b8b8b8" stroke="none" stroke-width="0.5" stroke-linecap="butt"/><path d="M267.74303,152.78244c-0.86473,0 -1.56573,-0.70099 -1.56573,-1.56573c0,-0.86473 0.701,-1.56573 1.56573,-1.56573c0.86473,0 1.56573,0.701 1.56573,1.56573c0,0.86473 -0.70099,1.56573 -1.56573,1.56573z" data-paper-data="{&quot;index&quot;:null}" fill="#b8b8b8" stroke="none" stroke-width="0.5" stroke-linecap="butt"/><path d="M270.44806,211.25725l-60.66828,-63.42594" data-paper-data="{&quot;index&quot;:null}" fill="none" stroke="#616161" stroke-width="5.5" stroke-linecap="round"/><path d="M207.61759,147.18034c0,-0.7543 0.61148,-1.36578 1.36578,-1.36578c0.7543,0 1.36578,0.61148 1.36578,1.36578c0,0.7543 -0.61148,1.36578 -1.36578,1.36578c-0.7543,0 -1.36578,-0.61148 -1.36578,-1.36578z" fill="#b8b8b8" stroke="none" stroke-width="0.5" stroke-linecap="butt"/><path d="M210.6223,150.04848c0,-0.7543 0.61148,-1.36578 1.36578,-1.36578c0.7543,0 1.36578,0.61148 1.36578,1.36578c0,0.7543 -0.61148,1.36578 -1.36578,1.36578c-0.7543,0 -1.36578,-0.61148 -1.36578,-1.36578z" fill="#b8b8b8" stroke="none" stroke-width="0.5" stroke-linecap="butt"/><path d="M267.37111,206.76949c0.74583,0 1.35044,0.60461 1.35044,1.35044c0,0.74583 -0.60461,1.35045 -1.35044,1.35045c-0.74583,0 -1.35045,-0.60461 -1.35045,-1.35045c0,-0.74583 0.60461,-1.35044 1.35045,-1.35044z" data-paper-data="{&quot;index&quot;:null}" fill="#b8b8b8" stroke="none" stroke-width="0.5" stroke-linecap="butt"/><path d="M270.88227,210.82082c0.74583,0 1.35045,0.60461 1.35045,1.35044c0,0.74583 -0.60461,1.35045 -1.35045,1.35045c-0.74583,0 -1.35044,-0.60461 -1.35044,-1.35045c0,-0.74583 0.60461,-1.35044 1.35044,-1.35044z" data-paper-data="{&quot;index&quot;:null}" fill="#b8b8b8" stroke="none" stroke-width="0.5" stroke-linecap="butt"/><path d="M237.83534,179.54428c0,-1.25843 1.02016,-2.27858 2.27859,-2.27858c1.25843,0 2.27858,1.02015 2.27858,2.27858c0,1.25843 -1.02015,2.27859 -2.27858,2.27859c-1.25843,0 -2.27859,-1.02016 -2.27859,-2.27859z" fill="#b8b8b8" stroke="none" stroke-width="0.5" stroke-linecap="butt"/><g><path d="M223.03137,197.64521v-35.29041h33.93729v35.29041z" fill="#b8b8b8" stroke="#616161" stroke-width="5.5" stroke-linecap="butt"/><path d="M223.22551,197.51783l33.28173,-34.79454" fill="none" stroke="#616161" stroke-width="5.5" stroke-linecap="round"/><path d="M225.31251,196.12501c-0.69036,0 -1.25,-0.55964 -1.25,-1.25c0,-0.69036 0.55964,-1.25 1.25,-1.25c0.69036,0 1.25,0.55964 1.25,1.25c0,0.69036 -0.55964,1.25 -1.25,1.25z" data-paper-data="{&quot;index&quot;:null}" fill="#b8b8b8" stroke="none" stroke-width="0.5" stroke-linecap="butt"/><path d="M223.06251,198.62501c-0.69036,0 -1.25,-0.55964 -1.25,-1.25c0,-0.69036 0.55964,-1.25 1.25,-1.25c0.69036,0 1.25,0.55964 1.25,1.25c0,0.69036 -0.55964,1.25 -1.25,1.25z" data-paper-data="{&quot;index&quot;:null}" fill="#b8b8b8" stroke="none" stroke-width="0.5" stroke-linecap="butt"/><path d="M257.31251,163.375c-0.69036,0 -1.25,-0.55964 -1.25,-1.25c0,-0.69036 0.55964,-1.25 1.25,-1.25c0.69036,0 1.25,0.55964 1.25,1.25c0,0.69036 -0.55964,1.25 -1.25,1.25z" data-paper-data="{&quot;index&quot;:null}" fill="#b8b8b8" stroke="none" stroke-width="0.5" stroke-linecap="butt"/><path d="M254.56251,166.625c-0.69036,0 -1.25,-0.55964 -1.25,-1.25c0,-0.69036 0.55964,-1.25 1.25,-1.25c0.69036,0 1.25,0.55964 1.25,1.25c0,0.69036 -0.55964,1.25 -1.25,1.25z" data-paper-data="{&quot;index&quot;:null}" fill="#b8b8b8" stroke="none" stroke-width="0.5" stroke-linecap="butt"/><path d="M256.64087,197.39728l-33.28173,-34.79454" data-paper-data="{&quot;index&quot;:null}" fill="none" stroke="#616161" stroke-width="5.5" stroke-linecap="round"/><path d="M221.18751,162.5c0,-0.69036 0.55964,-1.25 1.25,-1.25c0.69036,0 1.25,0.55964 1.25,1.25c0,0.69036 -0.55964,1.25 -1.25,1.25c-0.69036,0 -1.25,-0.55964 -1.25,-1.25z" fill="#b8b8b8" stroke="none" stroke-width="0.5" stroke-linecap="butt"/><path d="M223.93751,165.125c0,-0.69036 0.55964,-1.25 1.25,-1.25c0.69036,0 1.25,0.55964 1.25,1.25c0,0.69036 -0.55964,1.25 -1.25,1.25c-0.69036,0 -1.25,-0.55964 -1.25,-1.25z" fill="#b8b8b8" stroke="none" stroke-width="0.5" stroke-linecap="butt"/><path d="M254.18751,193.37501c0.69036,0 1.25,0.55964 1.25,1.25c0,0.69036 -0.55964,1.25 -1.25,1.25c-0.69036,0 -1.25,-0.55964 -1.25,-1.25c0,-0.69036 0.55964,-1.25 1.25,-1.25z" data-paper-data="{&quot;index&quot;:null}" fill="#b8b8b8" stroke="none" stroke-width="0.5" stroke-linecap="butt"/><path d="M257.43751,197.12501c0.69036,0 1.25,0.55964 1.25,1.25c0,0.69036 -0.55964,1.25 -1.25,1.25c-0.69036,0 -1.25,-0.55964 -1.25,-1.25c0,-0.69036 0.55964,-1.25 1.25,-1.25z" data-paper-data="{&quot;index&quot;:null}" fill="#b8b8b8" stroke="none" stroke-width="0.5" stroke-linecap="butt"/><path d="M238.75001,180.00001c0,-0.69036 0.55964,-1.25 1.25,-1.25c0.69036,0 1.25,0.55964 1.25,1.25c0,0.69036 -0.55964,1.25 -1.25,1.25c-0.69036,0 -1.25,-0.55964 -1.25,-1.25z" fill="#b8b8b8" stroke="none" stroke-width="0.5" stroke-linecap="butt"/></g></g></g></svg>