<svg version="1.1" xmlns="http://www.w3.org/2000/svg" xmlns:xlink="http://www.w3.org/1999/xlink" width="64.06583" height="62.53801" viewBox="0,0,64.06583,62.53801"><g transform="translate(-207.96708,-148.73099)"><g data-paper-data="{&quot;isPaintingLayer&quot;:true}" fill-rule="nonzero" stroke-linejoin="miter" stroke-miterlimit="10" stroke-dasharray="" stroke-dashoffset="0" style="mix-blend-mode: normal"><path d="M240,151.481c16.17251,0 29.28292,12.7684 29.28292,28.519c0,15.75061 -13.11041,28.519 -29.28292,28.519c-16.1725,0 -29.28292,-12.7684 -29.28292,-28.519c0,-15.75061 13.11041,-28.519 29.28292,-28.519z" data-paper-data="{&quot;index&quot;:null}" fill="#b8b8b8" stroke="#616161" stroke-width="5.5" stroke-linecap="butt"/><path d="M259.24732,198.86553l-38.34071,-37.60078" data-paper-data="{&quot;index&quot;:null}" fill="none" stroke="#616161" stroke-width="5.5" stroke-linecap="round"/><path d="M259.09339,161.13447l-38.34071,37.60079" data-paper-data="{&quot;index&quot;:null}" fill="none" stroke="#616161" stroke-width="5.5" stroke-linecap="round"/><path d="M236.93494,180c0,-1.47199 1.19327,-2.66527 2.66527,-2.66527c1.47199,0 2.66527,1.19327 2.66527,2.66527c0,1.47199 -1.19327,2.66527 -2.66527,2.66527c-1.47199,0 -2.66527,-1.19327 -2.66527,-2.66527z" fill="#b8b8b8" stroke="none" stroke-width="0.5" stroke-linecap="butt"/><path d="M217.99313,159.10615c0,-0.74461 0.60362,-1.34823 1.34823,-1.34823c0.74461,0 1.34823,0.60362 1.34823,1.34823c0,0.74461 -0.60362,1.34823 -1.34823,1.34823c-0.74461,0 -1.34823,-0.60362 -1.34823,-1.34823z" fill="#b8b8b8" stroke="none" stroke-width="0.5" stroke-linecap="butt"/><path d="M221.88526,197.08547c0,-0.74461 0.60362,-1.34823 1.34823,-1.34823c0.74461,0 1.34823,0.60362 1.34823,1.34823c0,0.74461 -0.60362,1.34823 -1.34823,1.34823c-0.74461,0 -1.34823,-0.60362 -1.34823,-1.34823z" fill="#b8b8b8" stroke="none" stroke-width="0.5" stroke-linecap="butt"/><path d="M256.78046,161.77092c0,-0.74461 0.60362,-1.34823 1.34823,-1.34823c0.74461,0 1.34823,0.60362 1.34823,1.34823c0,0.74461 -0.60362,1.34823 -1.34823,1.34823c-0.74461,0 -1.34823,-0.60362 -1.34823,-1.34823z" fill="#b8b8b8" stroke="none" stroke-width="0.5" stroke-linecap="butt"/><path d="M259.62469,200.87253c0,-0.74461 0.60362,-1.34823 1.34823,-1.34823c0.74461,0 1.34823,0.60362 1.34823,1.34823c0,0.74461 -0.60362,1.34823 -1.34823,1.34823c-0.74461,0 -1.34823,-0.60362 -1.34823,-1.34823z" fill="#b8b8b8" stroke="none" stroke-width="0.5" stroke-linecap="butt"/><path d="M220.28512,161.80261c0,-0.74461 0.60362,-1.34823 1.34823,-1.34823c0.74461,0 1.34823,0.60362 1.34823,1.34823c0,0.74461 -0.60362,1.34823 -1.34823,1.34823c-0.74461,0 -1.34823,-0.60362 -1.34823,-1.34823z" fill="#b8b8b8" stroke="none" stroke-width="0.5" stroke-linecap="butt"/><path d="M218.64951,200.18639c0,-0.74461 0.60362,-1.34823 1.34823,-1.34823c0.74461,0 1.34823,0.60362 1.34823,1.34823c0,0.74461 -0.60362,1.34823 -1.34823,1.34823c-0.74461,0 -1.34823,-0.60362 -1.34823,-1.34823z" fill="#b8b8b8" stroke="none" stroke-width="0.5" stroke-linecap="butt"/><path d="M256.38894,197.63678c0,-0.74461 0.60361,-1.34823 1.34823,-1.34823c0.74461,0 1.34823,0.60362 1.34823,1.34823c0,0.74461 -0.60362,1.34823 -1.34823,1.34823c-0.74461,0 -1.34823,-0.60362 -1.34823,-1.34823z" fill="#b8b8b8" stroke="none" stroke-width="0.5" stroke-linecap="butt"/><path d="M259.74657,159.47893c0,-0.74461 0.60362,-1.34823 1.34823,-1.34823c0.74461,0 1.34823,0.60362 1.34823,1.34823c0,0.74461 -0.60362,1.34823 -1.34823,1.34823c-0.74461,0 -1.34823,-0.60362 -1.34823,-1.34823z" fill="#b8b8b8" stroke="none" stroke-width="0.5" stroke-linecap="butt"/><path d="M240.00001,166.6247c7.58484,0 13.73357,5.98833 13.73357,13.3753c0,7.38697 -6.14873,13.3753 -13.73357,13.3753c-7.58484,0 -13.73357,-5.98833 -13.73357,-13.3753c0,-7.38697 6.14873,-13.3753 13.73357,-13.3753z" data-paper-data="{&quot;index&quot;:null}" fill="#b8b8b8" stroke="#616161" stroke-width="5.5" stroke-linecap="butt"/><path d="M247.89995,187.73902l-15.67401,-15.37152" data-paper-data="{&quot;index&quot;:null}" fill="none" stroke="#616161" stroke-width="5.5" stroke-linecap="round"/><path d="M247.83702,172.31424l-15.67401,15.37152" data-paper-data="{&quot;index&quot;:null}" fill="none" stroke="#616161" stroke-width="5.5" stroke-linecap="round"/><path d="M228.68751,169.625c0,-0.69036 0.55964,-1.25 1.25,-1.25c0.69036,0 1.25,0.55964 1.25,1.25c0,0.69036 -0.55964,1.25 -1.25,1.25c-0.69036,0 -1.25,-0.55964 -1.25,-1.25z" fill="#b8b8b8" stroke="none" stroke-width="0.5" stroke-linecap="butt"/><path d="M248.81251,170c0,-0.69036 0.55964,-1.25 1.25,-1.25c0.69036,0 1.25,0.55964 1.25,1.25c0,0.69036 -0.55964,1.25 -1.25,1.25c-0.69036,0 -1.25,-0.55964 -1.25,-1.25z" fill="#b8b8b8" stroke="none" stroke-width="0.5" stroke-linecap="butt"/><path d="M228.56251,190c0,-0.69036 0.55964,-1.25 1.25,-1.25c0.69036,0 1.25,0.55964 1.25,1.25c0,0.69036 -0.55964,1.25 -1.25,1.25c-0.69036,0 -1.25,-0.55964 -1.25,-1.25z" fill="#b8b8b8" stroke="none" stroke-width="0.5" stroke-linecap="butt"/><path d="M248.68751,189.75c0,-0.69036 0.55964,-1.25 1.25,-1.25c0.69036,0 1.25,0.55964 1.25,1.25c0,0.69036 -0.55964,1.25 -1.25,1.25c-0.69036,0 -1.25,-0.55964 -1.25,-1.25z" fill="#b8b8b8" stroke="none" stroke-width="0.5" stroke-linecap="butt"/><path d="M238.56251,180c0,-0.69036 0.55964,-1.25 1.25,-1.25c0.69036,0 1.25,0.55964 1.25,1.25c0,0.69036 -0.55964,1.25 -1.25,1.25c-0.69036,0 -1.25,-0.55964 -1.25,-1.25z" fill="#b8b8b8" stroke="none" stroke-width="0.5" stroke-linecap="butt"/><path d="M230.81251,172.125c0,-0.69036 0.55964,-1.25 1.25,-1.25c0.69036,0 1.25,0.55964 1.25,1.25c0,0.69036 -0.55964,1.25 -1.25,1.25c-0.69036,0 -1.25,-0.55964 -1.25,-1.25z" fill="#b8b8b8" stroke="none" stroke-width="0.5" stroke-linecap="butt"/><path d="M245.81251,172.875c0,-0.69036 0.55964,-1.25 1.25,-1.25c0.69036,0 1.25,0.55964 1.25,1.25c0,0.69036 -0.55964,1.25 -1.25,1.25c-0.69036,0 -1.25,-0.55964 -1.25,-1.25z" fill="#b8b8b8" stroke="none" stroke-width="0.5" stroke-linecap="butt"/><path d="M245.68751,186.75c0,-0.69036 0.55964,-1.25 1.25,-1.25c0.69036,0 1.25,0.55964 1.25,1.25c0,0.69036 -0.55964,1.25 -1.25,1.25c-0.69036,0 -1.25,-0.55964 -1.25,-1.25z" fill="#b8b8b8" stroke="none" stroke-width="0.5" stroke-linecap="butt"/><path d="M231.31251,187.875c0,-0.69036 0.55964,-1.25 1.25,-1.25c0.69036,0 1.25,0.55964 1.25,1.25c0,0.69036 -0.55964,1.25 -1.25,1.25c-0.69036,0 -1.25,-0.55964 -1.25,-1.25z" fill="#b8b8b8" stroke="none" stroke-width="0.5" stroke-linecap="butt"/></g></g></svg>