<svg version="1.1" xmlns="http://www.w3.org/2000/svg" xmlns:xlink="http://www.w3.org/1999/xlink" width="32.96714" height="32.2506" viewBox="0,0,32.96714,32.2506"><g transform="translate(-223.51643,-163.8747)"><g data-paper-data="{&quot;isPaintingLayer&quot;:true}" fill-rule="nonzero" stroke-linejoin="miter" stroke-miterlimit="10" stroke-dasharray="" stroke-dashoffset="0" style="mix-blend-mode: normal"><path d="M240,166.6247c7.58484,0 13.73357,5.98833 13.73357,13.3753c0,7.38697 -6.14873,13.3753 -13.73357,13.3753c-7.58484,0 -13.73357,-5.98833 -13.73357,-13.3753c0,-7.38697 6.14873,-13.3753 13.73357,-13.3753z" data-paper-data="{&quot;index&quot;:null}" fill="#b8b8b8" stroke="#616161" stroke-width="5.5" stroke-linecap="butt"/><path d="M247.83701,172.31424l-15.67401,15.37152" data-paper-data="{&quot;index&quot;:null}" fill="none" stroke="#616161" stroke-width="5.5" stroke-linecap="round"/><path d="M228.5625,190c0,-0.69036 0.55964,-1.25 1.25,-1.25c0.69036,0 1.25,0.55964 1.25,1.25c0,0.69036 -0.55964,1.25 -1.25,1.25c-0.69036,0 -1.25,-0.55964 -1.25,-1.25z" fill="#b8b8b8" stroke="none" stroke-width="0.5" stroke-linecap="butt"/><path d="M248.93876,170.02638c0,-0.69036 0.55964,-1.25 1.25,-1.25c0.69036,0 1.25,0.55964 1.25,1.25c0,0.69036 -0.55964,1.25 -1.25,1.25c-0.69036,0 -1.25,-0.55964 -1.25,-1.25z" fill="#b8b8b8" stroke="none" stroke-width="0.5" stroke-linecap="butt"/><path d="M246.50409,172.36558c0,-0.69036 0.55964,-1.25 1.25,-1.25c0.69036,0 1.25,0.55964 1.25,1.25c0,0.69036 -0.55964,1.25 -1.25,1.25c-0.69036,0 -1.25,-0.55964 -1.25,-1.25z" fill="#b8b8b8" stroke="none" stroke-width="0.5" stroke-linecap="butt"/><path d="M231.3125,187.875c0,-0.69036 0.55964,-1.25 1.25,-1.25c0.69036,0 1.25,0.55964 1.25,1.25c0,0.69036 -0.55964,1.25 -1.25,1.25c-0.69036,0 -1.25,-0.55964 -1.25,-1.25z" fill="#b8b8b8" stroke="none" stroke-width="0.5" stroke-linecap="butt"/></g></g></svg>