<svg version="1.1" xmlns="http://www.w3.org/2000/svg" xmlns:xlink="http://www.w3.org/1999/xlink" width="20.33352" height="20.92495" viewBox="0,0,20.33352,20.92495"><g transform="translate(-229.75128,-169.64679)"><g data-paper-data="{&quot;isPaintingLayer&quot;:true}" fill-rule="nonzero" stroke-linejoin="miter" stroke-miterlimit="10" stroke-dasharray="" stroke-dashoffset="0" style="mix-blend-mode: normal"><path d="M232.50129,187.82174v-15.42495h14.83352v15.42495z" fill="#b8b8b8" stroke="#616161" stroke-width="5.5" stroke-linecap="butt"/><path d="M232.58614,187.76607l14.54699,-15.20821" fill="none" stroke="#616161" stroke-width="5.5" stroke-linecap="round"/><path d="M234.76926,186.99797c-0.69267,0 -1.25416,-0.5615 -1.25416,-1.25417c0,-0.69267 0.56149,-1.25416 1.25416,-1.25416c0.69267,0 1.25416,0.56149 1.25416,1.25416c0,0.69267 -0.56149,1.25417 -1.25416,1.25417z" data-paper-data="{&quot;index&quot;:null}" fill="#b8b8b8" stroke="none" stroke-width="0.5" stroke-linecap="butt"/><path d="M232.51179,189.50629c-0.69267,0 -1.25417,-0.56149 -1.25417,-1.25416c0,-0.69267 0.5615,-1.25416 1.25417,-1.25416c0.69267,0 1.25416,0.56149 1.25416,1.25416c0,0.69267 -0.56149,1.25416 -1.25416,1.25416z" data-paper-data="{&quot;index&quot;:null}" fill="#b8b8b8" stroke="none" stroke-width="0.5" stroke-linecap="butt"/><path d="M248.20414,172.7699c-0.66325,0 -1.20091,-0.53765 -1.20091,-1.20091c0,-0.66325 0.53765,-1.20091 1.20091,-1.20091c0.66325,0 1.20091,0.53766 1.20091,1.20091c0,0.66325 -0.53765,1.20091 -1.20091,1.20091z" data-paper-data="{&quot;index&quot;:null}" fill="#b8b8b8" stroke="none" stroke-width="0.5" stroke-linecap="butt"/><path d="M245.56214,175.89225c-0.66325,0 -1.20091,-0.53765 -1.20091,-1.20091c0,-0.66325 0.53765,-1.20091 1.20091,-1.20091c0.66325,0 1.20091,0.53765 1.20091,1.20091c0,0.66325 -0.53765,1.20091 -1.20091,1.20091z" data-paper-data="{&quot;index&quot;:null}" fill="#b8b8b8" stroke="none" stroke-width="0.5" stroke-linecap="butt"/></g></g></svg>