<svg version="1.1" xmlns="http://www.w3.org/2000/svg" xmlns:xlink="http://www.w3.org/1999/xlink" width="39.43729" height="40.79041" viewBox="0,0,39.43729,40.79041"><g transform="translate(-220.28136,-159.60479)"><g data-paper-data="{&quot;isPaintingLayer&quot;:true}" fill-rule="nonzero" stroke-linejoin="miter" stroke-miterlimit="10" stroke-dasharray="" stroke-dashoffset="0" style="mix-blend-mode: normal"><path d="M223.03137,197.6452v-35.29041h33.93729v35.29041z" fill="#b8b8b8" stroke="#616161" stroke-width="5.5" stroke-linecap="butt"/><path d="M223.22551,197.51783l33.28173,-34.79454" fill="none" stroke="#616161" stroke-width="5.5" stroke-linecap="round"/><path d="M225.31251,196.12501c-0.69036,0 -1.25,-0.55964 -1.25,-1.25c0,-0.69036 0.55964,-1.25 1.25,-1.25c0.69036,0 1.25,0.55964 1.25,1.25c0,0.69036 -0.55964,1.25 -1.25,1.25z" data-paper-data="{&quot;index&quot;:null}" fill="#b8b8b8" stroke="none" stroke-width="0.5" stroke-linecap="butt"/><path d="M223.06251,198.62501c-0.69036,0 -1.25,-0.55964 -1.25,-1.25c0,-0.69036 0.55964,-1.25 1.25,-1.25c0.69036,0 1.25,0.55964 1.25,1.25c0,0.69036 -0.55964,1.25 -1.25,1.25z" data-paper-data="{&quot;index&quot;:null}" fill="#b8b8b8" stroke="none" stroke-width="0.5" stroke-linecap="butt"/><path d="M257.31251,163.375c-0.69036,0 -1.25,-0.55964 -1.25,-1.25c0,-0.69036 0.55964,-1.25 1.25,-1.25c0.69036,0 1.25,0.55964 1.25,1.25c0,0.69036 -0.55964,1.25 -1.25,1.25z" data-paper-data="{&quot;index&quot;:null}" fill="#b8b8b8" stroke="none" stroke-width="0.5" stroke-linecap="butt"/><path d="M254.56251,166.625c-0.69036,0 -1.25,-0.55964 -1.25,-1.25c0,-0.69036 0.55964,-1.25 1.25,-1.25c0.69036,0 1.25,0.55964 1.25,1.25c0,0.69036 -0.55964,1.25 -1.25,1.25z" data-paper-data="{&quot;index&quot;:null}" fill="#b8b8b8" stroke="none" stroke-width="0.5" stroke-linecap="butt"/></g></g></svg>