<svg version="1.1" xmlns="http://www.w3.org/2000/svg" xmlns:xlink="http://www.w3.org/1999/xlink" width="59.30986" height="57.90612" viewBox="0,0,59.30986,57.90612"><g transform="translate(-210.34507,-151.04694)"><g data-paper-data="{&quot;isPaintingLayer&quot;:true}" fill-rule="nonzero" stroke-width="5.5" stroke-linejoin="miter" stroke-miterlimit="10" stroke-dasharray="" stroke-dashoffset="0" style="mix-blend-mode: normal"><path d="M240,153.79694c14.85918,0 26.90493,11.73152 26.90493,26.20306c0,14.47154 -12.04575,26.20306 -26.90493,26.20306c-14.85918,0 -26.90493,-11.73152 -26.90493,-26.20306c0,-14.47154 12.04575,-26.20306 26.90493,-26.20306z" data-paper-data="{&quot;index&quot;:null}" fill="#b78e47" stroke="#614b26" stroke-linecap="butt"/><path d="M258.12734,197.76776l-36.1097,-35.41283" data-paper-data="{&quot;index&quot;:null}" fill="none" stroke="#614b26" stroke-linecap="round"/><path d="M257.98236,162.23224l-36.1097,35.41283" data-paper-data="{&quot;index&quot;:null}" fill="none" stroke="#614b26" stroke-linecap="round"/><path d="M240,164.85944c8.58588,0 15.54611,6.77867 15.54611,15.14056c0,8.36189 -6.96023,15.14056 -15.54611,15.14056c-8.58588,0 -15.54611,-6.77867 -15.54611,-15.14056c0,-8.36189 6.96023,-15.14056 15.54611,-15.14056z" data-paper-data="{&quot;index&quot;:null}" fill="none" stroke="#614b26" stroke-linecap="butt"/></g></g></svg>